inDegrees=yes
name=ik_S53_A04_T01
DataType=double
version=3
OpenSimVersion=4.3-2021-08-27-4bc7ad9
endheader
time	pelvis_tilt	pelvis_list	pelvis_rotation	pelvis_tx	pelvis_ty	pelvis_tz	hip_flexion_r	hip_adduction_r	hip_rotation_r	knee_angle_r	knee_angle_r_beta	ankle_angle_r	subtalar_angle_r	mtp_angle_r	hip_flexion_l	hip_adduction_l	hip_rotation_l	knee_angle_l	knee_angle_l_beta	ankle_angle_l	subtalar_angle_l	mtp_angle_l	lumbar_extension	lumbar_bending	lumbar_rotation	arm_flex_r	arm_add_r	arm_rot_r	elbow_flex_r	pro_sup_r	wrist_flex_r	wrist_dev_r	arm_flex_l	arm_add_l	arm_rot_l	elbow_flex_l	pro_sup_l	wrist_flex_l	wrist_dev_l
6.679999999999946	16.03146774804171	4.837958806377718	18.65884068215269	0	0.9399999999999999	0	45.08459720604207	-10.19362819130474	5.372721848843046	71.20780836030745	1.24281070901651	0	0	0	42.08080661617005	-18.39469810720325	3.899596178424774	67.62063133742413	1.180202659115308	0	0	0	0	0	0	21.01400963977966	-21.01400963977961	3.396833667490147	64.2638209158589	86.60316652708084	0	0	21.01400963977966	-21.01400963977961	3.396833667490147	64.2638209158589	86.60316652679742	0	0
6.699999999999945	15.16295664696872	4.52604292012027	18.81476134002602	0	0.9399999999999999	0	45.67764194227091	-10.03099158616348	5.273606828228901	71.07213430631872	1.240442750064878	0	0	0	42.67865170308711	-18.14931486104529	3.824018516875485	67.47450939685493	1.177652350142972	0	0	0	0	0	0	21.01583197218381	-21.01583197218376	3.397069057215999	64.26701104519361	86.6029311373678	0	0	21.01583197218381	-21.01583197218376	3.397069057215999	64.26701104519361	86.6029311370845	0	0
6.719999999999945	13.54430295125755	3.921489156012183	19.11783276665491	0	0.9399999999999999	0	46.99739399107429	-9.918956004982835	5.040571965870196	70.87643203555658	1.237027101086449	0	0	0	44.06996929570749	-17.98369205221951	3.884786725885843	67.18652814549067	1.172626129122652	0	0	0	0	0	0	21.02096628946736	-21.02096628946731	3.397735039115415	64.2760417155008	86.60226515550471	0	0	21.02096628946736	-21.02096628946731	3.397735039115415	64.2760417155008	86.6022651552216	0	0
6.739999999999944	12.27265021195971	3.420937473382147	19.36188961249287	0	0.9399999999999999	0	47.88134022413595	-9.822897091655033	4.766460251145694	70.71160284006517	1.23415028892171	0	0	0	45.05163140503627	-17.93557578691122	4.006537387902021	66.96862300239401	1.168822966918586	0	0	0	0	0	0	21.02342604727193	-21.02342604727188	3.398053721437515	64.28036245096419	86.60194647319999	0	0	21.02342604727193	-21.02342604727188	3.398053721437515	64.28036245096419	86.60194647291689	0	0
6.759999999999944	10.78755268758637	2.813261946062642	19.62194798469281	0	0.9399999999999999	0	47.89055772243089	-10.22586945659908	4.808611394889946	69.37554165064105	1.210831622158148	0	0	0	46.70709321243869	-17.91657763761304	4.147805444061	67.14379779720579	1.171880343854557	0	0	0	0	0	0	21.1918138979598	-21.19181389795975	3.416869141140531	64.52926718257147	86.58313105450064	0	0	21.1918138979598	-21.19181389795975	3.416869141140531	64.52926718257147	86.58313105422081	0	0
6.779999999999943	9.085331781627021	2.142646978700829	19.90042503356353	0	0.9399999999999999	0	48.49263219501373	-11.02993657048163	4.801090870920512	68.41974650214667	1.194149849842333	0	0	0	48.10692148829221	-17.98931698925688	4.458853652330077	66.76199605998552	1.165216646450229	0	0	0	0	0	0	21.34331808618227	-21.34331808618223	3.43376650270781	64.75272038060427	86.56623369383435	0	0	21.34331808618227	-21.34331808618223	3.43376650270781	64.75272038060427	86.56623369355754	0	0
6.799999999999943	7.403147049526181	1.42391582403812	20.16838864368603	0	0.9399999999999999	0	50.26828992073216	-11.24038667809997	4.549322053025008	68.58303394377805	1.196999753325958	0	0	0	50.01662466760998	-18.07523255238066	4.59266332709514	66.97798381463399	1.168986343912835	0	0	0	0	0	0	21.35305081152046	-21.35305081152042	3.43501991951695	64.76967285702865	86.56498027709355	0	0	21.35305081152046	-21.35305081152042	3.43501991951695	64.76967285702865	86.56498027681693	0	0
6.819999999999943	5.696732777426361	0.5991236219808473	20.40977004584514	0	0.9399999999999999	0	50.77512613995409	-11.45353243169014	4.170206401857636	67.60441929444724	1.179919705586886	0	0	0	49.06652030170047	-18.66565195454227	4.035341625518866	64.58811479387593	1.127275260809194	0	0	0	0	0	0	21.5736980045084	-21.57369800450835	3.459384048218137	65.09130169123753	86.54061614968919	0	0	21.5736980045084	-21.57369800450835	3.459384048218137	65.09130169123753	86.54061614941682	0	0
6.839999999999942	4.852628126280173	0.1736423547346012	20.52487626618316	0	0.9399999999999999	0	50.4303809007512	-11.50400341291041	3.731828424713341	66.39501925937424	1.158811693001127	0	0	0	48.84719663597453	-18.63423754005884	3.468002369603604	63.90781393981513	1.115401771001703	0	0	0	0	0	0	21.72662061307375	-21.72662061307371	3.476200952277195	65.31315304626783	86.52379924652466	0	0	21.72662061307375	-21.72662061307371	3.476200952277195	65.31315304626783	86.52379924625514	0	0
6.859999999999942	3.343800046476708	-0.6164367524924933	20.85448986075381	0	0.9399999999999999	0	52.03504828219119	-11.70835393636358	3.395813552478105	66.79368095998039	1.165769652278305	0	0	0	49.35886572415566	-18.25185976340577	3.162254396188159	63.06746779111319	1.1007349638504	0	0	0	0	0	0	21.73250790352003	-21.73250790351998	3.476953666619804	65.32330633901381	86.52304653222301	0	0	21.73250790352003	-21.73250790351998	3.476953666619804	65.32330633901381	86.52304653195368	0	0
6.879999999999941	1.457981486102818	-1.503314545246518	21.24352470463753	0	0.9399999999999999	0	54.0365436813642	-11.95585462029979	3.011079217202963	66.79759281990769	1.165837927113913	0	0	0	50.2824076113499	-17.72914135179567	2.96690914876627	62.28335976856444	1.087049697165623	0	0	0	0	0	0	21.74164331549515	-21.7416433154951	3.478121046418488	65.33905061073833	86.52187915248791	0	0	21.74164331549515	-21.7416433154951	3.478121046418488	65.33905061073833	86.52187915221883	0	0
6.899999999999941	0.4622170998901189	-1.951375147542618	21.35372018046269	0	0.9399999999999999	0	51.27566660824256	-12.38363672255376	2.156790406235057	64.02271899781289	1.117407242590959	0	0	0	50.29348260931038	-17.49288292231687	2.710822087546924	61.65423965382092	1.076069479772824	0	0	0	0	0	0	21.99643218438965	-21.9964321843896	3.505950875698526	65.70576447998491	86.4940493246863	0	0	21.99643218438965	-21.9964321843896	3.505950875698526	65.70576447998491	86.49404932442204	0	0
6.91999999999994	-0.03626905547138113	-2.128889064365629	21.37061526986221	0	0.9399999999999999	0	51.79876229178107	-12.44713034477541	2.242158989898694	64.43280363019963	1.124564569637938	0	0	0	49.81578109740002	-17.37350519845666	2.199398977069949	61.23708381343747	1.068788736864209	0	0	0	0	0	0	22.00019974052912	-22.00019974052908	3.506428836418005	65.71219738226391	86.49357136399279	0	0	22.00019974052912	-22.00019974052908	3.506428836418005	65.71219738226391	86.49357136372865	0	0
6.93999999999994	-0.998002251694124	-2.450217665443065	21.43565259922185	0	0.9399999999999999	0	50.64887214175717	-12.30602631351067	1.439088245790839	62.93423282624185	1.098409575034617	0	0	0	49.79493624117639	-17.15069121386524	1.454525932144118	60.66529309514663	1.05880910619769	0	0	0	0	0	0	22.16146893685041	-22.16146893685036	3.523931824291094	65.94260967313942	86.47606837704839	0	0	22.16146893685041	-22.16146893685036	3.523931824291094	65.94260967313942	86.47606837678741	0	0
6.95999999999994	-1.945577652161827	-2.593524659073969	21.5930697089333	0	0.9399999999999999	0	50.51233991442837	-12.30483576966039	0.6761883634845247	62.41585789654086	1.08936222575154	0	0	0	49.62241270663558	-16.54380287308759	0.4841457963884749	60.0780219234947	1.048559290650319	0	0	0	0	0	0	22.17055207227026	-22.17055207227021	3.525080171708781	65.9580471783744	86.47492002969315	0	0	22.17055207227026	-22.17055207227021	3.525080171708781	65.9580471783744	86.47492002943235	0	0
6.979999999999939	-3.493939944447071	-2.567413566176455	21.92647462174748	0	0.9399999999999999	0	51.0338724244616	-12.87781501882254	0.101925108548117	62.06034923119049	1.083157429021806	0	0	0	50.01568218586282	-15.56130858521213	-0.4883526821468291	59.570546457704	1.03970217289918	0	0	0	0	0	0	22.35056209957514	-22.35056209957509	3.544450354088488	66.21270643310234	86.45554984833969	0	0	22.35056209957514	-22.35056209957509	3.544450354088488	66.21270643310234	86.45554984808233	0	0
6.999999999999939	-3.766170624154011	-2.535393689376593	21.9731766265545	0	0.9399999999999999	0	51.27195967501771	-13.04519827218233	0.1985242186701677	62.48598195823894	1.090586121513043	0	0	0	49.10335803231115	-15.51499556562854	-1.214847294137882	58.78137226004925	1.02592848477832	0	0	0	0	0	0	22.35696668680982	-22.35696668680977	3.545256433215004	66.2235284231549	86.45474376925694	0	0	22.35696668680982	-22.35696668680977	3.545256433215004	66.2235284231549	86.45474376899966	0	0
7.019999999999938	-4.227295972924513	-2.462684917613043	22.10521129997663	0	0.9399999999999999	0	49.35536183170743	-12.78764191308421	-1.507485987652464	61.11772117488096	1.06670546581753	0	0	0	48.4031238757657	-15.42346499408131	-1.817823834881693	58.18911306966585	1.015591611880934	0	0	0	0	0	0	22.53860165362197	-22.53860165362192	3.564806846778374	66.48056392190497	86.43519335672933	0	0	22.53860165362197	-22.53860165362192	3.564806846778374	66.48056392190497	86.43519335647554	0	0
7.039999999999938	-4.565118387769607	-2.357917901236778	22.30880299893984	0	0.9399999999999999	0	49.62642313770954	-13.10369988487104	-1.481356121042573	61.09883766902387	1.066375886466004	0	0	0	48.64226178039818	-15.11941744769385	-1.846984867516213	58.28589671272476	1.017280805114387	0	0	0	0	0	0	22.54047093082146	-22.54047093082141	3.565037874166709	66.4836564441263	86.43496232935344	0	0	22.54047093082146	-22.54047093082141	3.565037874166709	66.4836564441263	86.43496232909968	0	0
7.059999999999937	-4.78148650010399	-2.267702678786401	22.46194193411609	0	0.9399999999999999	0	47.61834607871779	-12.65618544267775	-2.580051288379993	59.42543732630445	1.037169540781548	0	0	0	47.73294117539005	-14.93258244750433	-2.317745878431873	57.92139331568006	1.010919020701252	0	0	0	0	0	0	22.71981792188092	-22.71981792188087	3.58420982240356	66.73546830368274	86.41579038213109	0	0	22.71981792188092	-22.71981792188087	3.58420982240356	66.73546830368274	86.41579038188068	0	0
7.079999999999937	-4.933722957238269	-2.22085966489783	22.55980487408785	0	0.9399999999999999	0	46.51085634040315	-12.44001116645333	-3.061510704100039	58.90097331369081	1.028015916953219	0	0	0	46.67215358808517	-14.71722413242035	-2.884344884963747	57.10329685281877	0.9966405438254033	0	0	0	0	0	0	22.72663180711699	-22.72663180711695	3.585058624693251	66.74683289896419	86.41494157988738	0	0	22.72663180711699	-22.72663180711695	3.585058624693251	66.74683289896419	86.41494157963714	0	0
7.099999999999937	-5.037326224096322	-2.22519354091964	22.57910519833986	0	0.9399999999999999	0	45.48515390406286	-12.17543682448354	-3.523444133846049	58.07970025312471	1.01368199798841	0	0	0	44.52787474850982	-14.09774578824979	-3.824894370724273	55.28480640720223	0.9649018981333358	0	0	0	0	0	0	22.73434893274094	-22.7343489327409	3.586018406406168	66.75968018912816	86.41398179822643	0	0	22.73434893274094	-22.7343489327409	3.586018406406168	66.75968018912816	86.41398179797635	0	0
7.119999999999936	-5.07764385778739	-2.210252927826704	22.56861844106701	0	0.9399999999999999	0	44.48369973214699	-11.92954232554847	-3.87846734027814	57.31862923532208	1.00039880288625	0	0	0	43.51267052243268	-13.67305329615959	-4.192886833993402	54.67128180619845	0.9541938738038354	0	0	0	0	0	0	22.73880638079595	-22.7388063807959	3.586572529578743	66.76709702869454	86.41342767508387	0	0	22.73880638079595	-22.7388063807959	3.586572529578743	66.76709702869454	86.41342767483387	0	0
7.139999999999936	-5.167816750957202	-2.214294631329753	22.48518826422458	0	0.9399999999999999	0	44.57823625585156	-11.88966052340986	-3.79996911292235	57.26072129194549	0.99938811861127	0	0	0	42.51444927015115	-13.2099384261481	-4.703429715026122	53.71974204215311	0.9375863719575943	0	0	0	0	0	0	22.74519625414119	-22.74519625414114	3.587366813987106	66.77772795441514	86.41263339071851	0	0	22.74519625414119	-22.74519625414114	3.587366813987106	66.77772795441514	86.41263339046864	0	0
